# xmcd
#
# Track frame offsets:
#	150
#	23405
#	45897
#	68390
#	96352
#	103310
#	135822
#	165265
#	190117
#	214990
#	240045
#	262705
#
# Disc length: 3643 seconds
#
# Revision: 1
# Processed by: cddbd v1.5.1PL0 Copyright (c) Steve Scherf et al.
# Submitted via: CDex 1.50Beta5
#
DISCID=800e390c
DTITLE=クリヤ・マコト - アンチテーゼ#2
DYEAR=1999
DGENRE=Jazz
TTITLE0=ECLIPSE
TTITLE1=今日もどこかでデビルマン
TTITLE2=ルパン三世
TTITLE3=GALAXY EXPRESS 999,THE
TTITLE4=TWINKLE
TTITLE5=残酷な天使のテーゼ
TTITLE6=Tank!
TTITLE7=COBRA
TTITLE8=CAT’S EYE
TTITLE9=ポプラ通りの家
TTITLE10=奇跡の海
TTITLE11=SATELLITE
EXTD=
EXTT0=
EXTT1=
EXTT2=
EXTT3=
EXTT4=
EXTT5=
EXTT6=
EXTT7=
EXTT8=
EXTT9=
EXTT10=
EXTT11=
PLAYORDER=
